<svg width="NaN" height="NaN" xmlns="http://www.w3.org/2000/svg">
 <g>
  <title>Layer 1</title>
  <path fill="#8946FF" d="m-104.65776,220.90927l54.30051,-32c54.30051,-32 162.90152,-96 271.50254,-122.7c108.60102,-26.3 217.20203,-16.3 325.80305,5.4c108.60102,21.3 217.20203,53.3 325.80305,80c108.60102,26.3 217.20203,48.3 325.80305,64c108.60102,16.3 217.20203,26.3 325.80305,5.3c108.60102,-21 217.20203,-75 271.50254,-101.3l54.30051,-26.7l0,-96l-54.30051,0c-54.30051,0 -162.90152,0 -271.50254,0c-108.60102,0 -217.20203,0 -325.80305,0c-108.60102,0 -217.20203,0 -325.80305,0c-108.60102,0 -217.20203,0 -325.80305,0c-108.60102,0 -217.20203,0 -325.80305,0c-108.60102,0 -217.20203,0 -271.50254,0l-54.30051,0l0,224z" id="svg_1" stroke="null"/>
 </g>

</svg>